<mxfile host="app.diagrams.net" modified="2020-07-28T08:03:14.191Z" agent="5.0 (X11)" etag="CV8CgvR_rAyXm8-la_Yo" version="13.5.3" type="github" pages="2">
  <diagram id="R2lEEEUBdFMjLlhIrx00" name="Page-1">
    <mxGraphModel dx="1102" dy="622" grid="1" gridSize="10" guides="1" tooltips="1" connect="1" arrows="1" fold="1" page="1" pageScale="1" pageWidth="850" pageHeight="1100" math="0" shadow="0" extFonts="Permanent Marker^https://fonts.googleapis.com/css?family=Permanent+Marker">
      <root>
        <mxCell id="0" />
        <mxCell id="1" parent="0" />
        <mxCell id="2pI7IWX8kXrqiCSa6rN7-24" value="" style="group" vertex="1" connectable="0" parent="1">
          <mxGeometry x="30" y="20" width="310" height="260" as="geometry" />
        </mxCell>
        <mxCell id="y-P4McXeMQRXRxNzkSaC-49" value="" style="group" vertex="1" connectable="0" parent="2pI7IWX8kXrqiCSa6rN7-24">
          <mxGeometry width="310" height="238.33333333333331" as="geometry" />
        </mxCell>
        <mxCell id="2pI7IWX8kXrqiCSa6rN7-5" value="FK1" style="shape=partialRectangle;overflow=hidden;connectable=0;fillColor=none;top=0;left=0;bottom=0;right=0;" vertex="1" parent="y-P4McXeMQRXRxNzkSaC-49">
          <mxGeometry y="96.66666666666664" width="30" height="32.49999999999999" as="geometry" />
        </mxCell>
        <mxCell id="2pI7IWX8kXrqiCSa6rN7-4" value="autor_id int NOT NULL" style="shape=partialRectangle;overflow=hidden;connectable=0;fillColor=none;top=0;left=0;bottom=0;right=0;align=left;spacingLeft=6;fontStyle=0" vertex="1" parent="y-P4McXeMQRXRxNzkSaC-49">
          <mxGeometry x="30" y="99.74999999999997" width="220" height="32.49999999999999" as="geometry" />
        </mxCell>
        <mxCell id="2pI7IWX8kXrqiCSa6rN7-6" value="FK2" style="shape=partialRectangle;overflow=hidden;connectable=0;fillColor=none;top=0;left=0;bottom=0;right=0;" vertex="1" parent="y-P4McXeMQRXRxNzkSaC-49">
          <mxGeometry y="119.91666666666663" width="30" height="32.49999999999999" as="geometry" />
        </mxCell>
        <mxCell id="2pI7IWX8kXrqiCSa6rN7-7" value="editora_id int NOT NULL" style="shape=partialRectangle;overflow=hidden;connectable=0;fillColor=none;top=0;left=0;bottom=0;right=0;align=left;spacingLeft=6;fontStyle=0" vertex="1" parent="y-P4McXeMQRXRxNzkSaC-49">
          <mxGeometry x="30" y="120" width="220" height="32.49999999999999" as="geometry" />
        </mxCell>
        <mxCell id="C-vyLk0tnHw3VtMMgP7b-23" value="Títulos" style="shape=table;startSize=30;container=1;collapsible=1;childLayout=tableLayout;fixedRows=1;rowLines=0;fontStyle=1;align=center;resizeLast=1;" parent="y-P4McXeMQRXRxNzkSaC-49" vertex="1">
          <mxGeometry width="310" height="238.33333333333331" as="geometry">
            <mxRectangle x="120" y="120" width="100" height="30" as="alternateBounds" />
          </mxGeometry>
        </mxCell>
        <mxCell id="C-vyLk0tnHw3VtMMgP7b-24" value="" style="shape=partialRectangle;collapsible=0;dropTarget=0;pointerEvents=0;fillColor=none;points=[[0,0.5],[1,0.5]];portConstraint=eastwest;top=0;left=0;right=0;bottom=1;" parent="C-vyLk0tnHw3VtMMgP7b-23" vertex="1">
          <mxGeometry y="30" width="310" height="30" as="geometry" />
        </mxCell>
        <mxCell id="C-vyLk0tnHw3VtMMgP7b-25" value="PK" style="shape=partialRectangle;overflow=hidden;connectable=0;fillColor=none;top=0;left=0;bottom=0;right=0;fontStyle=1;" parent="C-vyLk0tnHw3VtMMgP7b-24" vertex="1">
          <mxGeometry width="30" height="30" as="geometry" />
        </mxCell>
        <mxCell id="C-vyLk0tnHw3VtMMgP7b-26" value="titulo_id int NOT NULL " style="shape=partialRectangle;overflow=hidden;connectable=0;fillColor=none;top=0;left=0;bottom=0;right=0;align=left;spacingLeft=6;fontStyle=5;" parent="C-vyLk0tnHw3VtMMgP7b-24" vertex="1">
          <mxGeometry x="30" width="280" height="30" as="geometry" />
        </mxCell>
        <mxCell id="C-vyLk0tnHw3VtMMgP7b-27" value="" style="shape=partialRectangle;collapsible=0;dropTarget=0;pointerEvents=0;fillColor=none;points=[[0,0.5],[1,0.5]];portConstraint=eastwest;top=0;left=0;right=0;bottom=0;" parent="C-vyLk0tnHw3VtMMgP7b-23" vertex="1">
          <mxGeometry y="60" width="310" height="30" as="geometry" />
        </mxCell>
        <mxCell id="C-vyLk0tnHw3VtMMgP7b-28" value="" style="shape=partialRectangle;overflow=hidden;connectable=0;fillColor=none;top=0;left=0;bottom=0;right=0;" parent="C-vyLk0tnHw3VtMMgP7b-27" vertex="1">
          <mxGeometry width="30" height="30" as="geometry" />
        </mxCell>
        <mxCell id="C-vyLk0tnHw3VtMMgP7b-29" value="nome char(50) NOT NULL" style="shape=partialRectangle;overflow=hidden;connectable=0;fillColor=none;top=0;left=0;bottom=0;right=0;align=left;spacingLeft=6;" parent="C-vyLk0tnHw3VtMMgP7b-27" vertex="1">
          <mxGeometry x="30" width="280" height="30" as="geometry" />
        </mxCell>
        <mxCell id="2pI7IWX8kXrqiCSa6rN7-8" value="FK3" style="shape=partialRectangle;overflow=hidden;connectable=0;fillColor=none;top=0;left=0;bottom=0;right=0;" vertex="1" parent="y-P4McXeMQRXRxNzkSaC-49">
          <mxGeometry y="143.0833333333333" width="30" height="32.49999999999999" as="geometry" />
        </mxCell>
        <mxCell id="2pI7IWX8kXrqiCSa6rN7-9" value="area_conhecimento_id int NOT NULL" style="shape=partialRectangle;overflow=hidden;connectable=0;fillColor=none;top=0;left=0;bottom=0;right=0;align=left;spacingLeft=6;fontStyle=0" vertex="1" parent="y-P4McXeMQRXRxNzkSaC-49">
          <mxGeometry x="30" y="147.5" width="240" height="21.66666666666666" as="geometry" />
        </mxCell>
        <mxCell id="2pI7IWX8kXrqiCSa6rN7-23" value="cod_unico_identificacao char(50) NOT NULL" style="text;html=1;strokeColor=none;fillColor=none;align=left;verticalAlign=middle;whiteSpace=wrap;rounded=0;" vertex="1" parent="y-P4McXeMQRXRxNzkSaC-49">
          <mxGeometry x="38" y="84.25" width="262" height="21.66666666666666" as="geometry" />
        </mxCell>
        <mxCell id="y-P4McXeMQRXRxNzkSaC-47" value="FK4" style="shape=partialRectangle;overflow=hidden;connectable=0;fillColor=none;top=0;left=0;bottom=0;right=0;" vertex="1" parent="y-P4McXeMQRXRxNzkSaC-49">
          <mxGeometry y="164.3333333333333" width="30" height="32.49999999999999" as="geometry" />
        </mxCell>
        <mxCell id="y-P4McXeMQRXRxNzkSaC-48" value="usuario_id int NOT NULL" style="shape=partialRectangle;overflow=hidden;connectable=0;fillColor=none;top=0;left=0;bottom=0;right=0;align=left;spacingLeft=6;fontStyle=0" vertex="1" parent="y-P4McXeMQRXRxNzkSaC-49">
          <mxGeometry x="30" y="169.75" width="240" height="21.66666666666666" as="geometry" />
        </mxCell>
        <mxCell id="2pI7IWX8kXrqiCSa6rN7-46" value="" style="group;container=1;" vertex="1" connectable="0" parent="1">
          <mxGeometry x="35" y="430" width="300" height="120" as="geometry" />
        </mxCell>
        <mxCell id="2pI7IWX8kXrqiCSa6rN7-35" value="Exemplares" style="shape=table;startSize=30;container=1;collapsible=1;childLayout=tableLayout;fixedRows=1;rowLines=0;fontStyle=1;align=center;resizeLast=1;" vertex="1" parent="2pI7IWX8kXrqiCSa6rN7-46">
          <mxGeometry width="300" height="120" as="geometry" />
        </mxCell>
        <mxCell id="2pI7IWX8kXrqiCSa6rN7-36" value="" style="shape=partialRectangle;collapsible=0;dropTarget=0;pointerEvents=0;fillColor=none;points=[[0,0.5],[1,0.5]];portConstraint=eastwest;top=0;left=0;right=0;bottom=1;" vertex="1" parent="2pI7IWX8kXrqiCSa6rN7-35">
          <mxGeometry y="30" width="300" height="30" as="geometry" />
        </mxCell>
        <mxCell id="2pI7IWX8kXrqiCSa6rN7-37" value="PK" style="shape=partialRectangle;overflow=hidden;connectable=0;fillColor=none;top=0;left=0;bottom=0;right=0;fontStyle=1;" vertex="1" parent="2pI7IWX8kXrqiCSa6rN7-36">
          <mxGeometry width="30" height="30" as="geometry" />
        </mxCell>
        <mxCell id="2pI7IWX8kXrqiCSa6rN7-38" value="exemplar_id int NOT NULL " style="shape=partialRectangle;overflow=hidden;connectable=0;fillColor=none;top=0;left=0;bottom=0;right=0;align=left;spacingLeft=6;fontStyle=5;" vertex="1" parent="2pI7IWX8kXrqiCSa6rN7-36">
          <mxGeometry x="30" width="270" height="30" as="geometry" />
        </mxCell>
        <mxCell id="2pI7IWX8kXrqiCSa6rN7-39" value="" style="shape=partialRectangle;collapsible=0;dropTarget=0;pointerEvents=0;fillColor=none;points=[[0,0.5],[1,0.5]];portConstraint=eastwest;top=0;left=0;right=0;bottom=0;" vertex="1" parent="2pI7IWX8kXrqiCSa6rN7-35">
          <mxGeometry y="60" width="300" height="20" as="geometry" />
        </mxCell>
        <mxCell id="2pI7IWX8kXrqiCSa6rN7-40" value="" style="shape=partialRectangle;overflow=hidden;connectable=0;fillColor=none;top=0;left=0;bottom=0;right=0;" vertex="1" parent="2pI7IWX8kXrqiCSa6rN7-39">
          <mxGeometry width="30" height="20" as="geometry" />
        </mxCell>
        <mxCell id="2pI7IWX8kXrqiCSa6rN7-41" value="" style="shape=partialRectangle;overflow=hidden;connectable=0;fillColor=none;top=0;left=0;bottom=0;right=0;align=left;spacingLeft=6;" vertex="1" parent="2pI7IWX8kXrqiCSa6rN7-39">
          <mxGeometry x="30" width="270" height="20" as="geometry" />
        </mxCell>
        <mxCell id="2pI7IWX8kXrqiCSa6rN7-42" value="" style="shape=partialRectangle;collapsible=0;dropTarget=0;pointerEvents=0;fillColor=none;points=[[0,0.5],[1,0.5]];portConstraint=eastwest;top=0;left=0;right=0;bottom=0;" vertex="1" parent="2pI7IWX8kXrqiCSa6rN7-35">
          <mxGeometry y="80" width="300" height="30" as="geometry" />
        </mxCell>
        <mxCell id="2pI7IWX8kXrqiCSa6rN7-43" value="" style="shape=partialRectangle;overflow=hidden;connectable=0;fillColor=none;top=0;left=0;bottom=0;right=0;" vertex="1" parent="2pI7IWX8kXrqiCSa6rN7-42">
          <mxGeometry width="30" height="30" as="geometry" />
        </mxCell>
        <mxCell id="2pI7IWX8kXrqiCSa6rN7-44" value="" style="shape=partialRectangle;overflow=hidden;connectable=0;fillColor=none;top=0;left=0;bottom=0;right=0;align=left;spacingLeft=6;" vertex="1" parent="2pI7IWX8kXrqiCSa6rN7-42">
          <mxGeometry x="30" width="270" height="30" as="geometry" />
        </mxCell>
        <mxCell id="2pI7IWX8kXrqiCSa6rN7-45" value="cod_unico_identificacao char(50) NOT NULL" style="text;html=1;strokeColor=none;fillColor=none;align=left;verticalAlign=middle;whiteSpace=wrap;rounded=0;" vertex="1" parent="2pI7IWX8kXrqiCSa6rN7-46">
          <mxGeometry x="37" y="67" width="262" height="20" as="geometry" />
        </mxCell>
        <mxCell id="y-P4McXeMQRXRxNzkSaC-3" value="" style="group" vertex="1" connectable="0" parent="1">
          <mxGeometry x="567.5" y="10" width="255" height="190" as="geometry" />
        </mxCell>
        <mxCell id="2pI7IWX8kXrqiCSa6rN7-48" value="Editoras" style="shape=table;startSize=30;container=1;collapsible=1;childLayout=tableLayout;fixedRows=1;rowLines=0;fontStyle=1;align=center;resizeLast=1;" vertex="1" parent="y-P4McXeMQRXRxNzkSaC-3">
          <mxGeometry width="250" height="190" as="geometry" />
        </mxCell>
        <mxCell id="2pI7IWX8kXrqiCSa6rN7-49" value="" style="shape=partialRectangle;collapsible=0;dropTarget=0;pointerEvents=0;fillColor=none;points=[[0,0.5],[1,0.5]];portConstraint=eastwest;top=0;left=0;right=0;bottom=1;" vertex="1" parent="2pI7IWX8kXrqiCSa6rN7-48">
          <mxGeometry y="30" width="250" height="30" as="geometry" />
        </mxCell>
        <mxCell id="2pI7IWX8kXrqiCSa6rN7-50" value="PK" style="shape=partialRectangle;overflow=hidden;connectable=0;fillColor=none;top=0;left=0;bottom=0;right=0;fontStyle=1;" vertex="1" parent="2pI7IWX8kXrqiCSa6rN7-49">
          <mxGeometry width="30" height="30" as="geometry" />
        </mxCell>
        <mxCell id="2pI7IWX8kXrqiCSa6rN7-51" value="editora_id int NOT NULL " style="shape=partialRectangle;overflow=hidden;connectable=0;fillColor=none;top=0;left=0;bottom=0;right=0;align=left;spacingLeft=6;fontStyle=5;" vertex="1" parent="2pI7IWX8kXrqiCSa6rN7-49">
          <mxGeometry x="30" width="220" height="30" as="geometry" />
        </mxCell>
        <mxCell id="2pI7IWX8kXrqiCSa6rN7-52" value="" style="shape=partialRectangle;collapsible=0;dropTarget=0;pointerEvents=0;fillColor=none;points=[[0,0.5],[1,0.5]];portConstraint=eastwest;top=0;left=0;right=0;bottom=0;" vertex="1" parent="2pI7IWX8kXrqiCSa6rN7-48">
          <mxGeometry y="60" width="250" height="30" as="geometry" />
        </mxCell>
        <mxCell id="2pI7IWX8kXrqiCSa6rN7-53" value="" style="shape=partialRectangle;overflow=hidden;connectable=0;fillColor=none;top=0;left=0;bottom=0;right=0;" vertex="1" parent="2pI7IWX8kXrqiCSa6rN7-52">
          <mxGeometry width="30" height="30" as="geometry" />
        </mxCell>
        <mxCell id="2pI7IWX8kXrqiCSa6rN7-54" value="codigo char(50) NOT NULL" style="shape=partialRectangle;overflow=hidden;connectable=0;fillColor=none;top=0;left=0;bottom=0;right=0;align=left;spacingLeft=6;" vertex="1" parent="2pI7IWX8kXrqiCSa6rN7-52">
          <mxGeometry x="30" width="220" height="30" as="geometry" />
        </mxCell>
        <mxCell id="2pI7IWX8kXrqiCSa6rN7-55" value="" style="shape=partialRectangle;collapsible=0;dropTarget=0;pointerEvents=0;fillColor=none;points=[[0,0.5],[1,0.5]];portConstraint=eastwest;top=0;left=0;right=0;bottom=0;" vertex="1" parent="2pI7IWX8kXrqiCSa6rN7-48">
          <mxGeometry y="90" width="250" height="30" as="geometry" />
        </mxCell>
        <mxCell id="2pI7IWX8kXrqiCSa6rN7-56" value="" style="shape=partialRectangle;overflow=hidden;connectable=0;fillColor=none;top=0;left=0;bottom=0;right=0;" vertex="1" parent="2pI7IWX8kXrqiCSa6rN7-55">
          <mxGeometry width="30" height="30" as="geometry" />
        </mxCell>
        <mxCell id="2pI7IWX8kXrqiCSa6rN7-57" value="nome char(50) NOT NULL" style="shape=partialRectangle;overflow=hidden;connectable=0;fillColor=none;top=0;left=0;bottom=0;right=0;align=left;spacingLeft=6;" vertex="1" parent="2pI7IWX8kXrqiCSa6rN7-55">
          <mxGeometry x="30" width="220" height="30" as="geometry" />
        </mxCell>
        <mxCell id="y-P4McXeMQRXRxNzkSaC-1" value="telefone char(12) NOT NULL" style="shape=partialRectangle;overflow=hidden;connectable=0;fillColor=none;top=0;left=0;bottom=0;right=0;align=left;spacingLeft=6;" vertex="1" parent="y-P4McXeMQRXRxNzkSaC-3">
          <mxGeometry x="30" y="120" width="220" height="30" as="geometry" />
        </mxCell>
        <mxCell id="y-P4McXeMQRXRxNzkSaC-2" value="endereco char(50)  NOT NULL" style="shape=partialRectangle;overflow=hidden;connectable=0;fillColor=none;top=0;left=0;bottom=0;right=0;align=left;spacingLeft=6;" vertex="1" parent="y-P4McXeMQRXRxNzkSaC-3">
          <mxGeometry x="30" y="150" width="220" height="30" as="geometry" />
        </mxCell>
        <mxCell id="y-P4McXeMQRXRxNzkSaC-14" value="" style="edgeStyle=entityRelationEdgeStyle;endArrow=ERzeroToMany;startArrow=ERone;endFill=1;startFill=0;exitX=1;exitY=0.5;exitDx=0;exitDy=0;" edge="1" parent="1" source="C-vyLk0tnHw3VtMMgP7b-23" target="2pI7IWX8kXrqiCSa6rN7-26">
          <mxGeometry width="100" height="100" relative="1" as="geometry">
            <mxPoint x="390" y="420" as="sourcePoint" />
            <mxPoint x="550" y="230" as="targetPoint" />
          </mxGeometry>
        </mxCell>
        <mxCell id="y-P4McXeMQRXRxNzkSaC-15" value="" style="edgeStyle=entityRelationEdgeStyle;endArrow=ERzeroToMany;startArrow=ERone;endFill=1;startFill=0;exitX=1;exitY=0.5;exitDx=0;exitDy=0;" edge="1" parent="1" source="C-vyLk0tnHw3VtMMgP7b-27" target="2pI7IWX8kXrqiCSa6rN7-55">
          <mxGeometry width="100" height="100" relative="1" as="geometry">
            <mxPoint x="350" y="355" as="sourcePoint" />
            <mxPoint x="430" y="50" as="targetPoint" />
          </mxGeometry>
        </mxCell>
        <mxCell id="y-P4McXeMQRXRxNzkSaC-16" value="" style="edgeStyle=entityRelationEdgeStyle;endArrow=ERzeroToMany;startArrow=ERone;endFill=1;startFill=0;exitX=1;exitY=0.75;exitDx=0;exitDy=0;entryX=0;entryY=0.5;entryDx=0;entryDy=0;" edge="1" parent="1" source="C-vyLk0tnHw3VtMMgP7b-23" target="y-P4McXeMQRXRxNzkSaC-11">
          <mxGeometry width="100" height="100" relative="1" as="geometry">
            <mxPoint x="311" y="290" as="sourcePoint" />
            <mxPoint x="538.5" y="580" as="targetPoint" />
          </mxGeometry>
        </mxCell>
        <mxCell id="y-P4McXeMQRXRxNzkSaC-29" value="" style="edgeStyle=entityRelationEdgeStyle;endArrow=ERzeroToMany;startArrow=ERone;endFill=1;startFill=0;exitX=1;exitY=1;exitDx=0;exitDy=0;" edge="1" parent="1" source="C-vyLk0tnHw3VtMMgP7b-23" target="y-P4McXeMQRXRxNzkSaC-17">
          <mxGeometry width="100" height="100" relative="1" as="geometry">
            <mxPoint x="350" y="187.5" as="sourcePoint" />
            <mxPoint x="550" y="635" as="targetPoint" />
          </mxGeometry>
        </mxCell>
        <mxCell id="y-P4McXeMQRXRxNzkSaC-30" value="" style="edgeStyle=entityRelationEdgeStyle;endArrow=ERzeroToMany;startArrow=ERone;endFill=1;startFill=0;exitX=1;exitY=0.5;exitDx=0;exitDy=0;" edge="1" parent="1" source="2pI7IWX8kXrqiCSa6rN7-36" target="y-P4McXeMQRXRxNzkSaC-24">
          <mxGeometry width="100" height="100" relative="1" as="geometry">
            <mxPoint x="350" y="240" as="sourcePoint" />
            <mxPoint x="320" y="385" as="targetPoint" />
          </mxGeometry>
        </mxCell>
        <mxCell id="y-P4McXeMQRXRxNzkSaC-33" value="" style="group" vertex="1" connectable="0" parent="1">
          <mxGeometry x="110" y="290" width="210" height="120" as="geometry" />
        </mxCell>
        <mxCell id="y-P4McXeMQRXRxNzkSaC-27" value="titulo_id int (NOT NULL)" style="text;html=1;strokeColor=none;fillColor=none;align=left;verticalAlign=middle;whiteSpace=wrap;rounded=0;" vertex="1" parent="y-P4McXeMQRXRxNzkSaC-33">
          <mxGeometry x="36" y="65" width="164" height="20" as="geometry" />
        </mxCell>
        <mxCell id="y-P4McXeMQRXRxNzkSaC-28" value="exemplar_id int NOT NULL " style="shape=partialRectangle;overflow=hidden;connectable=0;fillColor=none;top=0;left=0;bottom=0;right=0;align=left;spacingLeft=6;fontStyle=4;" vertex="1" parent="y-P4McXeMQRXRxNzkSaC-33">
          <mxGeometry x="30" y="90" width="170" height="30" as="geometry" />
        </mxCell>
        <mxCell id="y-P4McXeMQRXRxNzkSaC-17" value="TitulosExemplares" style="shape=table;startSize=30;container=1;collapsible=1;childLayout=tableLayout;fixedRows=1;rowLines=0;fontStyle=1;align=center;resizeLast=1;" vertex="1" parent="y-P4McXeMQRXRxNzkSaC-33">
          <mxGeometry width="210" height="120" as="geometry" />
        </mxCell>
        <mxCell id="y-P4McXeMQRXRxNzkSaC-18" value="" style="shape=partialRectangle;collapsible=0;dropTarget=0;pointerEvents=0;fillColor=none;points=[[0,0.5],[1,0.5]];portConstraint=eastwest;top=0;left=0;right=0;bottom=1;" vertex="1" parent="y-P4McXeMQRXRxNzkSaC-17">
          <mxGeometry y="30" width="210" height="30" as="geometry" />
        </mxCell>
        <mxCell id="y-P4McXeMQRXRxNzkSaC-19" value="PK" style="shape=partialRectangle;overflow=hidden;connectable=0;fillColor=none;top=0;left=0;bottom=0;right=0;fontStyle=1;" vertex="1" parent="y-P4McXeMQRXRxNzkSaC-18">
          <mxGeometry width="30" height="30" as="geometry" />
        </mxCell>
        <mxCell id="y-P4McXeMQRXRxNzkSaC-20" value="id int NOT NULL " style="shape=partialRectangle;overflow=hidden;connectable=0;fillColor=none;top=0;left=0;bottom=0;right=0;align=left;spacingLeft=6;fontStyle=5;" vertex="1" parent="y-P4McXeMQRXRxNzkSaC-18">
          <mxGeometry x="30" width="180" height="30" as="geometry" />
        </mxCell>
        <mxCell id="y-P4McXeMQRXRxNzkSaC-21" value="" style="shape=partialRectangle;collapsible=0;dropTarget=0;pointerEvents=0;fillColor=none;points=[[0,0.5],[1,0.5]];portConstraint=eastwest;top=0;left=0;right=0;bottom=0;" vertex="1" parent="y-P4McXeMQRXRxNzkSaC-17">
          <mxGeometry y="60" width="210" height="20" as="geometry" />
        </mxCell>
        <mxCell id="y-P4McXeMQRXRxNzkSaC-22" value="" style="shape=partialRectangle;overflow=hidden;connectable=0;fillColor=none;top=0;left=0;bottom=0;right=0;" vertex="1" parent="y-P4McXeMQRXRxNzkSaC-21">
          <mxGeometry width="30" height="20" as="geometry" />
        </mxCell>
        <mxCell id="y-P4McXeMQRXRxNzkSaC-23" value="" style="shape=partialRectangle;overflow=hidden;connectable=0;fillColor=none;top=0;left=0;bottom=0;right=0;align=left;spacingLeft=6;" vertex="1" parent="y-P4McXeMQRXRxNzkSaC-21">
          <mxGeometry x="30" width="180" height="20" as="geometry" />
        </mxCell>
        <mxCell id="y-P4McXeMQRXRxNzkSaC-24" value="" style="shape=partialRectangle;collapsible=0;dropTarget=0;pointerEvents=0;fillColor=none;points=[[0,0.5],[1,0.5]];portConstraint=eastwest;top=0;left=0;right=0;bottom=0;" vertex="1" parent="y-P4McXeMQRXRxNzkSaC-17">
          <mxGeometry y="80" width="210" height="30" as="geometry" />
        </mxCell>
        <mxCell id="y-P4McXeMQRXRxNzkSaC-25" value="" style="shape=partialRectangle;overflow=hidden;connectable=0;fillColor=none;top=0;left=0;bottom=0;right=0;" vertex="1" parent="y-P4McXeMQRXRxNzkSaC-24">
          <mxGeometry width="30" height="30" as="geometry" />
        </mxCell>
        <mxCell id="y-P4McXeMQRXRxNzkSaC-26" value="" style="shape=partialRectangle;overflow=hidden;connectable=0;fillColor=none;top=0;left=0;bottom=0;right=0;align=left;spacingLeft=6;" vertex="1" parent="y-P4McXeMQRXRxNzkSaC-24">
          <mxGeometry x="30" width="180" height="30" as="geometry" />
        </mxCell>
        <mxCell id="y-P4McXeMQRXRxNzkSaC-34" value="FK1" style="shape=partialRectangle;overflow=hidden;connectable=0;fillColor=none;top=0;left=0;bottom=0;right=0;" vertex="1" parent="y-P4McXeMQRXRxNzkSaC-33">
          <mxGeometry x="2" y="60" width="30" height="30" as="geometry" />
        </mxCell>
        <mxCell id="y-P4McXeMQRXRxNzkSaC-35" value="FK2" style="shape=partialRectangle;overflow=hidden;connectable=0;fillColor=none;top=0;left=0;bottom=0;right=0;" vertex="1" parent="y-P4McXeMQRXRxNzkSaC-33">
          <mxGeometry x="2" y="90" width="30" height="30" as="geometry" />
        </mxCell>
        <mxCell id="2pI7IWX8kXrqiCSa6rN7-25" value="Autores" style="shape=table;startSize=30;container=1;collapsible=1;childLayout=tableLayout;fixedRows=1;rowLines=0;fontStyle=1;align=center;resizeLast=1;" vertex="1" parent="1">
          <mxGeometry x="570" y="220" width="250" height="130" as="geometry" />
        </mxCell>
        <mxCell id="2pI7IWX8kXrqiCSa6rN7-26" value="" style="shape=partialRectangle;collapsible=0;dropTarget=0;pointerEvents=0;fillColor=none;points=[[0,0.5],[1,0.5]];portConstraint=eastwest;top=0;left=0;right=0;bottom=1;" vertex="1" parent="2pI7IWX8kXrqiCSa6rN7-25">
          <mxGeometry y="30" width="250" height="30" as="geometry" />
        </mxCell>
        <mxCell id="2pI7IWX8kXrqiCSa6rN7-27" value="PK" style="shape=partialRectangle;overflow=hidden;connectable=0;fillColor=none;top=0;left=0;bottom=0;right=0;fontStyle=1;" vertex="1" parent="2pI7IWX8kXrqiCSa6rN7-26">
          <mxGeometry width="30" height="30" as="geometry" />
        </mxCell>
        <mxCell id="2pI7IWX8kXrqiCSa6rN7-28" value="autor_id int NOT NULL " style="shape=partialRectangle;overflow=hidden;connectable=0;fillColor=none;top=0;left=0;bottom=0;right=0;align=left;spacingLeft=6;fontStyle=5;" vertex="1" parent="2pI7IWX8kXrqiCSa6rN7-26">
          <mxGeometry x="30" width="220" height="30" as="geometry" />
        </mxCell>
        <mxCell id="2pI7IWX8kXrqiCSa6rN7-29" value="" style="shape=partialRectangle;collapsible=0;dropTarget=0;pointerEvents=0;fillColor=none;points=[[0,0.5],[1,0.5]];portConstraint=eastwest;top=0;left=0;right=0;bottom=0;" vertex="1" parent="2pI7IWX8kXrqiCSa6rN7-25">
          <mxGeometry y="60" width="250" height="30" as="geometry" />
        </mxCell>
        <mxCell id="2pI7IWX8kXrqiCSa6rN7-30" value="" style="shape=partialRectangle;overflow=hidden;connectable=0;fillColor=none;top=0;left=0;bottom=0;right=0;" vertex="1" parent="2pI7IWX8kXrqiCSa6rN7-29">
          <mxGeometry width="30" height="30" as="geometry" />
        </mxCell>
        <mxCell id="2pI7IWX8kXrqiCSa6rN7-31" value="codigo int NOT NULL" style="shape=partialRectangle;overflow=hidden;connectable=0;fillColor=none;top=0;left=0;bottom=0;right=0;align=left;spacingLeft=6;" vertex="1" parent="2pI7IWX8kXrqiCSa6rN7-29">
          <mxGeometry x="30" width="220" height="30" as="geometry" />
        </mxCell>
        <mxCell id="2pI7IWX8kXrqiCSa6rN7-32" value="" style="shape=partialRectangle;collapsible=0;dropTarget=0;pointerEvents=0;fillColor=none;points=[[0,0.5],[1,0.5]];portConstraint=eastwest;top=0;left=0;right=0;bottom=0;" vertex="1" parent="2pI7IWX8kXrqiCSa6rN7-25">
          <mxGeometry y="90" width="250" height="30" as="geometry" />
        </mxCell>
        <mxCell id="2pI7IWX8kXrqiCSa6rN7-33" value="" style="shape=partialRectangle;overflow=hidden;connectable=0;fillColor=none;top=0;left=0;bottom=0;right=0;" vertex="1" parent="2pI7IWX8kXrqiCSa6rN7-32">
          <mxGeometry width="30" height="30" as="geometry" />
        </mxCell>
        <mxCell id="2pI7IWX8kXrqiCSa6rN7-34" value="nome char(50) NOT NULL" style="shape=partialRectangle;overflow=hidden;connectable=0;fillColor=none;top=0;left=0;bottom=0;right=0;align=left;spacingLeft=6;" vertex="1" parent="2pI7IWX8kXrqiCSa6rN7-32">
          <mxGeometry x="30" width="220" height="30" as="geometry" />
        </mxCell>
        <mxCell id="y-P4McXeMQRXRxNzkSaC-4" value="AreasConhecimento" style="shape=table;startSize=30;container=1;collapsible=1;childLayout=tableLayout;fixedRows=1;rowLines=0;fontStyle=1;align=center;resizeLast=1;" vertex="1" parent="1">
          <mxGeometry x="542.5" y="360" width="280" height="130" as="geometry" />
        </mxCell>
        <mxCell id="y-P4McXeMQRXRxNzkSaC-5" value="" style="shape=partialRectangle;collapsible=0;dropTarget=0;pointerEvents=0;fillColor=none;points=[[0,0.5],[1,0.5]];portConstraint=eastwest;top=0;left=0;right=0;bottom=1;" vertex="1" parent="y-P4McXeMQRXRxNzkSaC-4">
          <mxGeometry y="30" width="280" height="30" as="geometry" />
        </mxCell>
        <mxCell id="y-P4McXeMQRXRxNzkSaC-6" value="PK" style="shape=partialRectangle;overflow=hidden;connectable=0;fillColor=none;top=0;left=0;bottom=0;right=0;fontStyle=1;" vertex="1" parent="y-P4McXeMQRXRxNzkSaC-5">
          <mxGeometry width="30" height="30" as="geometry" />
        </mxCell>
        <mxCell id="y-P4McXeMQRXRxNzkSaC-7" value="areaconhecimento_id int NOT NULL " style="shape=partialRectangle;overflow=hidden;connectable=0;fillColor=none;top=0;left=0;bottom=0;right=0;align=left;spacingLeft=6;fontStyle=5;" vertex="1" parent="y-P4McXeMQRXRxNzkSaC-5">
          <mxGeometry x="30" width="250" height="30" as="geometry" />
        </mxCell>
        <mxCell id="y-P4McXeMQRXRxNzkSaC-8" value="" style="shape=partialRectangle;collapsible=0;dropTarget=0;pointerEvents=0;fillColor=none;points=[[0,0.5],[1,0.5]];portConstraint=eastwest;top=0;left=0;right=0;bottom=0;" vertex="1" parent="y-P4McXeMQRXRxNzkSaC-4">
          <mxGeometry y="60" width="280" height="30" as="geometry" />
        </mxCell>
        <mxCell id="y-P4McXeMQRXRxNzkSaC-9" value="" style="shape=partialRectangle;overflow=hidden;connectable=0;fillColor=none;top=0;left=0;bottom=0;right=0;" vertex="1" parent="y-P4McXeMQRXRxNzkSaC-8">
          <mxGeometry width="30" height="30" as="geometry" />
        </mxCell>
        <mxCell id="y-P4McXeMQRXRxNzkSaC-10" value="codigo int NOT NULL" style="shape=partialRectangle;overflow=hidden;connectable=0;fillColor=none;top=0;left=0;bottom=0;right=0;align=left;spacingLeft=6;" vertex="1" parent="y-P4McXeMQRXRxNzkSaC-8">
          <mxGeometry x="30" width="250" height="30" as="geometry" />
        </mxCell>
        <mxCell id="y-P4McXeMQRXRxNzkSaC-11" value="" style="shape=partialRectangle;collapsible=0;dropTarget=0;pointerEvents=0;fillColor=none;points=[[0,0.5],[1,0.5]];portConstraint=eastwest;top=0;left=0;right=0;bottom=0;" vertex="1" parent="y-P4McXeMQRXRxNzkSaC-4">
          <mxGeometry y="90" width="280" height="30" as="geometry" />
        </mxCell>
        <mxCell id="y-P4McXeMQRXRxNzkSaC-12" value="" style="shape=partialRectangle;overflow=hidden;connectable=0;fillColor=none;top=0;left=0;bottom=0;right=0;" vertex="1" parent="y-P4McXeMQRXRxNzkSaC-11">
          <mxGeometry width="30" height="30" as="geometry" />
        </mxCell>
        <mxCell id="y-P4McXeMQRXRxNzkSaC-13" value="descricao char(50) NOT NULL" style="shape=partialRectangle;overflow=hidden;connectable=0;fillColor=none;top=0;left=0;bottom=0;right=0;align=left;spacingLeft=6;" vertex="1" parent="y-P4McXeMQRXRxNzkSaC-11">
          <mxGeometry x="30" width="250" height="30" as="geometry" />
        </mxCell>
        <mxCell id="y-P4McXeMQRXRxNzkSaC-36" value="Usuarios" style="shape=table;startSize=30;container=1;collapsible=1;childLayout=tableLayout;fixedRows=1;rowLines=0;fontStyle=1;align=center;resizeLast=1;" vertex="1" parent="1">
          <mxGeometry x="542.5" y="510" width="280" height="210" as="geometry" />
        </mxCell>
        <mxCell id="y-P4McXeMQRXRxNzkSaC-37" value="" style="shape=partialRectangle;collapsible=0;dropTarget=0;pointerEvents=0;fillColor=none;points=[[0,0.5],[1,0.5]];portConstraint=eastwest;top=0;left=0;right=0;bottom=1;" vertex="1" parent="y-P4McXeMQRXRxNzkSaC-36">
          <mxGeometry y="30" width="280" height="30" as="geometry" />
        </mxCell>
        <mxCell id="y-P4McXeMQRXRxNzkSaC-38" value="PK" style="shape=partialRectangle;overflow=hidden;connectable=0;fillColor=none;top=0;left=0;bottom=0;right=0;fontStyle=1;" vertex="1" parent="y-P4McXeMQRXRxNzkSaC-37">
          <mxGeometry width="30" height="30" as="geometry" />
        </mxCell>
        <mxCell id="y-P4McXeMQRXRxNzkSaC-39" value="usuario_id int NOT NULL " style="shape=partialRectangle;overflow=hidden;connectable=0;fillColor=none;top=0;left=0;bottom=0;right=0;align=left;spacingLeft=6;fontStyle=5;" vertex="1" parent="y-P4McXeMQRXRxNzkSaC-37">
          <mxGeometry x="30" width="250" height="30" as="geometry" />
        </mxCell>
        <mxCell id="y-P4McXeMQRXRxNzkSaC-40" value="" style="shape=partialRectangle;collapsible=0;dropTarget=0;pointerEvents=0;fillColor=none;points=[[0,0.5],[1,0.5]];portConstraint=eastwest;top=0;left=0;right=0;bottom=0;" vertex="1" parent="y-P4McXeMQRXRxNzkSaC-36">
          <mxGeometry y="60" width="280" height="30" as="geometry" />
        </mxCell>
        <mxCell id="y-P4McXeMQRXRxNzkSaC-41" value="" style="shape=partialRectangle;overflow=hidden;connectable=0;fillColor=none;top=0;left=0;bottom=0;right=0;" vertex="1" parent="y-P4McXeMQRXRxNzkSaC-40">
          <mxGeometry width="30" height="30" as="geometry" />
        </mxCell>
        <mxCell id="y-P4McXeMQRXRxNzkSaC-42" value="codigo int NOT NULL" style="shape=partialRectangle;overflow=hidden;connectable=0;fillColor=none;top=0;left=0;bottom=0;right=0;align=left;spacingLeft=6;" vertex="1" parent="y-P4McXeMQRXRxNzkSaC-40">
          <mxGeometry x="30" width="250" height="30" as="geometry" />
        </mxCell>
        <mxCell id="y-P4McXeMQRXRxNzkSaC-43" value="" style="shape=partialRectangle;collapsible=0;dropTarget=0;pointerEvents=0;fillColor=none;points=[[0,0.5],[1,0.5]];portConstraint=eastwest;top=0;left=0;right=0;bottom=0;" vertex="1" parent="y-P4McXeMQRXRxNzkSaC-36">
          <mxGeometry y="90" width="280" height="30" as="geometry" />
        </mxCell>
        <mxCell id="y-P4McXeMQRXRxNzkSaC-44" value="" style="shape=partialRectangle;overflow=hidden;connectable=0;fillColor=none;top=0;left=0;bottom=0;right=0;" vertex="1" parent="y-P4McXeMQRXRxNzkSaC-43">
          <mxGeometry width="30" height="30" as="geometry" />
        </mxCell>
        <mxCell id="y-P4McXeMQRXRxNzkSaC-45" value="nome char(50) NOT NULL" style="shape=partialRectangle;overflow=hidden;connectable=0;fillColor=none;top=0;left=0;bottom=0;right=0;align=left;spacingLeft=6;" vertex="1" parent="y-P4McXeMQRXRxNzkSaC-43">
          <mxGeometry x="30" width="250" height="30" as="geometry" />
        </mxCell>
        <mxCell id="y-P4McXeMQRXRxNzkSaC-46" value="data_emprestimo date NOT NULL" style="shape=partialRectangle;overflow=hidden;connectable=0;fillColor=none;top=0;left=0;bottom=0;right=0;align=left;spacingLeft=6;" vertex="1" parent="1">
          <mxGeometry x="572.5" y="684" width="250" height="30" as="geometry" />
        </mxCell>
        <mxCell id="y-P4McXeMQRXRxNzkSaC-50" value="" style="edgeStyle=entityRelationEdgeStyle;endArrow=ERzeroToMany;startArrow=ERone;endFill=1;startFill=0;entryX=0;entryY=0.5;entryDx=0;entryDy=0;" edge="1" parent="1" target="y-P4McXeMQRXRxNzkSaC-43">
          <mxGeometry width="100" height="100" relative="1" as="geometry">
            <mxPoint x="340" y="220" as="sourcePoint" />
            <mxPoint x="552.5" y="475" as="targetPoint" />
          </mxGeometry>
        </mxCell>
        <mxCell id="y-P4McXeMQRXRxNzkSaC-51" value="telefone char(11) NOT NULL" style="shape=partialRectangle;overflow=hidden;connectable=0;fillColor=none;top=0;left=0;bottom=0;right=0;align=left;spacingLeft=6;" vertex="1" parent="1">
          <mxGeometry x="572.5" y="624" width="250" height="30" as="geometry" />
        </mxCell>
        <mxCell id="y-P4McXeMQRXRxNzkSaC-52" value="endereco char(50) NOT NULL" style="shape=partialRectangle;overflow=hidden;connectable=0;fillColor=none;top=0;left=0;bottom=0;right=0;align=left;spacingLeft=6;" vertex="1" parent="1">
          <mxGeometry x="572.5" y="654" width="250" height="30" as="geometry" />
        </mxCell>
        <mxCell id="y-P4McXeMQRXRxNzkSaC-54" value="FK5" style="shape=partialRectangle;overflow=hidden;connectable=0;fillColor=none;top=0;left=0;bottom=0;right=0;" vertex="1" parent="1">
          <mxGeometry x="30" y="205.3333333333333" width="30" height="32.49999999999999" as="geometry" />
        </mxCell>
        <mxCell id="y-P4McXeMQRXRxNzkSaC-55" value="palavra_chave_id int NOT NULL" style="shape=partialRectangle;overflow=hidden;connectable=0;fillColor=none;top=0;left=0;bottom=0;right=0;align=left;spacingLeft=6;fontStyle=0" vertex="1" parent="1">
          <mxGeometry x="60" y="210.75" width="240" height="21.66666666666666" as="geometry" />
        </mxCell>
        <mxCell id="y-P4McXeMQRXRxNzkSaC-66" value="" style="edgeStyle=entityRelationEdgeStyle;endArrow=ERzeroToMany;startArrow=ERone;endFill=1;startFill=0;entryX=0;entryY=0.5;entryDx=0;entryDy=0;" edge="1" parent="1" target="y-P4McXeMQRXRxNzkSaC-60">
          <mxGeometry width="100" height="100" relative="1" as="geometry">
            <mxPoint x="340" y="240" as="sourcePoint" />
            <mxPoint x="552.5" y="625" as="targetPoint" />
          </mxGeometry>
        </mxCell>
        <mxCell id="y-P4McXeMQRXRxNzkSaC-69" value="" style="group" vertex="1" connectable="0" parent="1">
          <mxGeometry x="560" y="890" width="252.5" height="120" as="geometry" />
        </mxCell>
        <mxCell id="y-P4McXeMQRXRxNzkSaC-56" value="PalavrasChaves" style="shape=table;startSize=30;container=1;collapsible=1;childLayout=tableLayout;fixedRows=1;rowLines=0;fontStyle=1;align=center;resizeLast=1;" vertex="1" parent="y-P4McXeMQRXRxNzkSaC-69">
          <mxGeometry width="252.5" height="120" as="geometry" />
        </mxCell>
        <mxCell id="y-P4McXeMQRXRxNzkSaC-57" value="" style="shape=partialRectangle;collapsible=0;dropTarget=0;pointerEvents=0;fillColor=none;points=[[0,0.5],[1,0.5]];portConstraint=eastwest;top=0;left=0;right=0;bottom=1;" vertex="1" parent="y-P4McXeMQRXRxNzkSaC-56">
          <mxGeometry y="30" width="252.5" height="30" as="geometry" />
        </mxCell>
        <mxCell id="y-P4McXeMQRXRxNzkSaC-58" value="PK" style="shape=partialRectangle;overflow=hidden;connectable=0;fillColor=none;top=0;left=0;bottom=0;right=0;fontStyle=1;" vertex="1" parent="y-P4McXeMQRXRxNzkSaC-57">
          <mxGeometry width="30" height="30" as="geometry" />
        </mxCell>
        <mxCell id="y-P4McXeMQRXRxNzkSaC-59" value="palavra_chave_id int NOT NULL " style="shape=partialRectangle;overflow=hidden;connectable=0;fillColor=none;top=0;left=0;bottom=0;right=0;align=left;spacingLeft=6;fontStyle=5;" vertex="1" parent="y-P4McXeMQRXRxNzkSaC-57">
          <mxGeometry x="30" width="222.5" height="30" as="geometry" />
        </mxCell>
        <mxCell id="y-P4McXeMQRXRxNzkSaC-60" value="" style="shape=partialRectangle;collapsible=0;dropTarget=0;pointerEvents=0;fillColor=none;points=[[0,0.5],[1,0.5]];portConstraint=eastwest;top=0;left=0;right=0;bottom=0;" vertex="1" parent="y-P4McXeMQRXRxNzkSaC-56">
          <mxGeometry y="60" width="252.5" height="20" as="geometry" />
        </mxCell>
        <mxCell id="y-P4McXeMQRXRxNzkSaC-61" value="" style="shape=partialRectangle;overflow=hidden;connectable=0;fillColor=none;top=0;left=0;bottom=0;right=0;" vertex="1" parent="y-P4McXeMQRXRxNzkSaC-60">
          <mxGeometry width="30" height="20" as="geometry" />
        </mxCell>
        <mxCell id="y-P4McXeMQRXRxNzkSaC-62" value="" style="shape=partialRectangle;overflow=hidden;connectable=0;fillColor=none;top=0;left=0;bottom=0;right=0;align=left;spacingLeft=6;" vertex="1" parent="y-P4McXeMQRXRxNzkSaC-60">
          <mxGeometry x="30" width="222.5" height="20" as="geometry" />
        </mxCell>
        <mxCell id="y-P4McXeMQRXRxNzkSaC-63" value="" style="shape=partialRectangle;collapsible=0;dropTarget=0;pointerEvents=0;fillColor=none;points=[[0,0.5],[1,0.5]];portConstraint=eastwest;top=0;left=0;right=0;bottom=0;" vertex="1" parent="y-P4McXeMQRXRxNzkSaC-56">
          <mxGeometry y="80" width="252.5" height="30" as="geometry" />
        </mxCell>
        <mxCell id="y-P4McXeMQRXRxNzkSaC-64" value="" style="shape=partialRectangle;overflow=hidden;connectable=0;fillColor=none;top=0;left=0;bottom=0;right=0;" vertex="1" parent="y-P4McXeMQRXRxNzkSaC-63">
          <mxGeometry width="30" height="30" as="geometry" />
        </mxCell>
        <mxCell id="y-P4McXeMQRXRxNzkSaC-65" value="" style="shape=partialRectangle;overflow=hidden;connectable=0;fillColor=none;top=0;left=0;bottom=0;right=0;align=left;spacingLeft=6;" vertex="1" parent="y-P4McXeMQRXRxNzkSaC-63">
          <mxGeometry x="30" width="222.5" height="30" as="geometry" />
        </mxCell>
        <mxCell id="y-P4McXeMQRXRxNzkSaC-67" value="codigo int NOT NULL" style="shape=partialRectangle;overflow=hidden;connectable=0;fillColor=none;top=0;left=0;bottom=0;right=0;align=left;spacingLeft=6;" vertex="1" parent="y-P4McXeMQRXRxNzkSaC-69">
          <mxGeometry x="30" y="59" width="200" height="30" as="geometry" />
        </mxCell>
        <mxCell id="y-P4McXeMQRXRxNzkSaC-68" value="descricao char(50) NOT NULL" style="shape=partialRectangle;overflow=hidden;connectable=0;fillColor=none;top=0;left=0;bottom=0;right=0;align=left;spacingLeft=6;" vertex="1" parent="y-P4McXeMQRXRxNzkSaC-69">
          <mxGeometry x="30" y="87" width="200" height="30" as="geometry" />
        </mxCell>
        <mxCell id="y-P4McXeMQRXRxNzkSaC-72" value="palavra_chave_id int NOT NULL " style="shape=partialRectangle;overflow=hidden;connectable=0;fillColor=none;top=0;left=0;bottom=0;right=0;align=left;spacingLeft=6;fontStyle=4;" vertex="1" parent="1">
          <mxGeometry x="610" y="830" width="210" height="30" as="geometry" />
        </mxCell>
        <mxCell id="y-P4McXeMQRXRxNzkSaC-85" value="" style="group" vertex="1" connectable="0" parent="1">
          <mxGeometry x="580" y="730" width="230" height="140" as="geometry" />
        </mxCell>
        <mxCell id="y-P4McXeMQRXRxNzkSaC-71" value="titulo_id int (NOT NULL)" style="text;html=1;strokeColor=none;fillColor=none;align=left;verticalAlign=middle;whiteSpace=wrap;rounded=0;" vertex="1" parent="y-P4McXeMQRXRxNzkSaC-85">
          <mxGeometry x="36" y="75" width="164" height="20" as="geometry" />
        </mxCell>
        <mxCell id="y-P4McXeMQRXRxNzkSaC-73" value="PalavrasChavesTitulos" style="shape=table;startSize=30;container=1;collapsible=1;childLayout=tableLayout;fixedRows=1;rowLines=0;fontStyle=1;align=center;resizeLast=1;" vertex="1" parent="y-P4McXeMQRXRxNzkSaC-85">
          <mxGeometry width="230" height="140" as="geometry" />
        </mxCell>
        <mxCell id="y-P4McXeMQRXRxNzkSaC-74" value="" style="shape=partialRectangle;collapsible=0;dropTarget=0;pointerEvents=0;fillColor=none;points=[[0,0.5],[1,0.5]];portConstraint=eastwest;top=0;left=0;right=0;bottom=1;" vertex="1" parent="y-P4McXeMQRXRxNzkSaC-73">
          <mxGeometry y="30" width="230" height="30" as="geometry" />
        </mxCell>
        <mxCell id="y-P4McXeMQRXRxNzkSaC-75" value="PK" style="shape=partialRectangle;overflow=hidden;connectable=0;fillColor=none;top=0;left=0;bottom=0;right=0;fontStyle=1;" vertex="1" parent="y-P4McXeMQRXRxNzkSaC-74">
          <mxGeometry width="30" height="30" as="geometry" />
        </mxCell>
        <mxCell id="y-P4McXeMQRXRxNzkSaC-76" value="id int NOT NULL " style="shape=partialRectangle;overflow=hidden;connectable=0;fillColor=none;top=0;left=0;bottom=0;right=0;align=left;spacingLeft=6;fontStyle=5;" vertex="1" parent="y-P4McXeMQRXRxNzkSaC-74">
          <mxGeometry x="30" width="200" height="30" as="geometry" />
        </mxCell>
        <mxCell id="y-P4McXeMQRXRxNzkSaC-77" value="" style="shape=partialRectangle;collapsible=0;dropTarget=0;pointerEvents=0;fillColor=none;points=[[0,0.5],[1,0.5]];portConstraint=eastwest;top=0;left=0;right=0;bottom=0;" vertex="1" parent="y-P4McXeMQRXRxNzkSaC-73">
          <mxGeometry y="60" width="230" height="20" as="geometry" />
        </mxCell>
        <mxCell id="y-P4McXeMQRXRxNzkSaC-78" value="" style="shape=partialRectangle;overflow=hidden;connectable=0;fillColor=none;top=0;left=0;bottom=0;right=0;" vertex="1" parent="y-P4McXeMQRXRxNzkSaC-77">
          <mxGeometry width="30" height="20" as="geometry" />
        </mxCell>
        <mxCell id="y-P4McXeMQRXRxNzkSaC-79" value="" style="shape=partialRectangle;overflow=hidden;connectable=0;fillColor=none;top=0;left=0;bottom=0;right=0;align=left;spacingLeft=6;" vertex="1" parent="y-P4McXeMQRXRxNzkSaC-77">
          <mxGeometry x="30" width="200" height="20" as="geometry" />
        </mxCell>
        <mxCell id="y-P4McXeMQRXRxNzkSaC-80" value="" style="shape=partialRectangle;collapsible=0;dropTarget=0;pointerEvents=0;fillColor=none;points=[[0,0.5],[1,0.5]];portConstraint=eastwest;top=0;left=0;right=0;bottom=0;" vertex="1" parent="y-P4McXeMQRXRxNzkSaC-73">
          <mxGeometry y="80" width="230" height="30" as="geometry" />
        </mxCell>
        <mxCell id="y-P4McXeMQRXRxNzkSaC-81" value="" style="shape=partialRectangle;overflow=hidden;connectable=0;fillColor=none;top=0;left=0;bottom=0;right=0;" vertex="1" parent="y-P4McXeMQRXRxNzkSaC-80">
          <mxGeometry width="30" height="30" as="geometry" />
        </mxCell>
        <mxCell id="y-P4McXeMQRXRxNzkSaC-82" value="" style="shape=partialRectangle;overflow=hidden;connectable=0;fillColor=none;top=0;left=0;bottom=0;right=0;align=left;spacingLeft=6;" vertex="1" parent="y-P4McXeMQRXRxNzkSaC-80">
          <mxGeometry x="30" width="200" height="30" as="geometry" />
        </mxCell>
        <mxCell id="y-P4McXeMQRXRxNzkSaC-83" value="FK1" style="shape=partialRectangle;overflow=hidden;connectable=0;fillColor=none;top=0;left=0;bottom=0;right=0;" vertex="1" parent="y-P4McXeMQRXRxNzkSaC-85">
          <mxGeometry x="2" y="70" width="30" height="30" as="geometry" />
        </mxCell>
        <mxCell id="y-P4McXeMQRXRxNzkSaC-84" value="FK2" style="shape=partialRectangle;overflow=hidden;connectable=0;fillColor=none;top=0;left=0;bottom=0;right=0;" vertex="1" parent="y-P4McXeMQRXRxNzkSaC-85">
          <mxGeometry x="2" y="100" width="30" height="30" as="geometry" />
        </mxCell>
        <mxCell id="y-P4McXeMQRXRxNzkSaC-86" value="" style="edgeStyle=entityRelationEdgeStyle;endArrow=ERzeroToMany;startArrow=ERone;endFill=1;startFill=0;" edge="1" parent="1">
          <mxGeometry width="100" height="100" relative="1" as="geometry">
            <mxPoint x="240" y="960" as="sourcePoint" />
            <mxPoint x="410" y="820" as="targetPoint" />
          </mxGeometry>
        </mxCell>
        <mxCell id="y-P4McXeMQRXRxNzkSaC-87" style="edgeStyle=orthogonalEdgeStyle;rounded=0;orthogonalLoop=1;jettySize=auto;html=1;entryX=0;entryY=0.5;entryDx=0;entryDy=0;" edge="1" parent="1" source="y-P4McXeMQRXRxNzkSaC-56" target="y-P4McXeMQRXRxNzkSaC-80">
          <mxGeometry relative="1" as="geometry" />
        </mxCell>
      </root>
    </mxGraphModel>
  </diagram>
  <diagram id="KYr-xILtQrCam23GWICX" name="Page-2">
    <mxGraphModel dx="1102" dy="622" grid="1" gridSize="10" guides="1" tooltips="1" connect="1" arrows="1" fold="1" page="1" pageScale="1" pageWidth="827" pageHeight="1169" math="0" shadow="0">
      <root>
        <mxCell id="inng8YCF5YVvVNMlNNv7-0" />
        <mxCell id="inng8YCF5YVvVNMlNNv7-1" parent="inng8YCF5YVvVNMlNNv7-0" />
      </root>
    </mxGraphModel>
  </diagram>
</mxfile>
